HIERARCHY
ROOT Pelvis
{
	OFFSET 0.000000 0.000000 0.000000
	CHANNELS 6 Xposition Yposition Zposition Zrotation Yrotation Xrotation 
	JOINT Left_hip
	{
		OFFSET 0.076090 -0.089427 -0.010735
		CHANNELS 3 Zrotation Yrotation Xrotation
		JOINT Left_knee
		{
			OFFSET 0.030200 -0.359518 -0.003501
			CHANNELS 3 Zrotation Yrotation Xrotation
			JOINT Left_ankle
			{
				OFFSET -0.011005 -0.371022 -0.045888
				CHANNELS 3 Zrotation Yrotation Xrotation
				JOINT Left_foot
				{
					OFFSET 0.023930 -0.052103 0.111084
					CHANNELS 3 Zrotation Yrotation Xrotation
					End Site
					{
						OFFSET 0.000000 0.000000 0.000000
					}
				}
			}
		}
	}
	JOINT Right_hip
	{
		OFFSET -0.073836 -0.088112 -0.007709
		CHANNELS 3 Zrotation Yrotation Xrotation
		JOINT Right_knee
		{
			OFFSET -0.035715 -0.367809 -0.006536
			CHANNELS 3 Zrotation Yrotation Xrotation
			JOINT Right_ankle
			{
				OFFSET 0.013718 -0.371958 -0.043815
				CHANNELS 3 Zrotation Yrotation Xrotation
				JOINT Right_foot
				{
					OFFSET -0.021936 -0.046387 0.114542
					CHANNELS 3 Zrotation Yrotation Xrotation
					End Site
					{
						OFFSET 0.000000 0.000000 0.000000
					}
				}
			}
		}
	}
	JOINT Spine1
	{
		OFFSET -0.001865 0.102064 -0.019455
		CHANNELS 3 Zrotation Yrotation Xrotation
		JOINT Spine2
		{
			OFFSET 0.003082 0.129260 -0.001938
			CHANNELS 3 Zrotation Yrotation Xrotation
			JOINT Spine3
			{
				OFFSET 0.001104 0.048093 0.026561
				CHANNELS 3 Zrotation Yrotation Xrotation
				JOINT Neck
				{
					OFFSET -0.002010 0.204222 -0.047183
					CHANNELS 3 Zrotation Yrotation Xrotation
					JOINT Head
					{
						OFFSET 0.005050 0.063649 0.048489
						CHANNELS 3 Zrotation Yrotation Xrotation
						End Site
						{
							OFFSET 0.000000 0.000000 0.000000
						}
					}
				}
				JOINT Left_collar
				{
					OFFSET 0.072979 0.114065 -0.031633
					CHANNELS 3 Zrotation Yrotation Xrotation
					JOINT Left_shoulder
					{
						OFFSET 0.083419 0.032092 -0.006530
						CHANNELS 3 Zrotation Yrotation Xrotation
						JOINT Left_elbow
						{
							OFFSET 0.239393 -0.012014 -0.025060
							CHANNELS 3 Zrotation Yrotation Xrotation
							JOINT Left_wrist
							{
								OFFSET 0.227297 0.008116 0.000384
								CHANNELS 3 Zrotation Yrotation Xrotation
								JOINT Left_palm
								{
									OFFSET 0.074607 -0.009248 -0.012277
									CHANNELS 3 Zrotation Yrotation Xrotation
									End Site
									{
										OFFSET 0.000000 0.000000 0.000000
									}
								}
							}
						}
					}
				}
				JOINT Right_collar
				{
					OFFSET -0.074980 0.111880 -0.037894
					CHANNELS 3 Zrotation Yrotation Xrotation
					JOINT Right_shoulder
					{
						OFFSET -0.087565 0.034353 -0.009323
						CHANNELS 3 Zrotation Yrotation Xrotation
						JOINT Right_elbow
						{
							OFFSET -0.236838 -0.013719 -0.019794
							CHANNELS 3 Zrotation Yrotation Xrotation
							JOINT Right_wrist
							{
								OFFSET -0.235053 0.006433 -0.003853
								CHANNELS 3 Zrotation Yrotation Xrotation
								JOINT Right_palm
								{
									OFFSET -0.075499 -0.006894 -0.009792
									CHANNELS 3 Zrotation Yrotation Xrotation
									End Site
									{
										OFFSET 0.000000 0.000000 0.000000
									}
								}
							}
						}
					}
				}
			}
		}
	}
}
MOTION
Frames: 6
Frame Time: 0.100000
-0.264049 0.383177 -2.006806 -10.987961 -61.970434 -171.070770 -0.365555 0.732247 -14.050166 -5.156276 13.642480 -7.856924 -4.962283 15.947916 -3.998526 13.065752 -0.631282 -3.841620 3.754503 -5.239432 17.016971 0.157295 4.450880 5.744183 4.454309 -10.183497 -21.809439 -7.731626 4.792351 3.639669 5.629327 5.084860 9.275851 1.850055 0.755839 0.520476 1.355758 2.565175 5.918166 -7.484053 13.840083 -4.114685 -11.467518 9.445265 21.586976 -23.497490 6.977644 2.199803 -61.288280 3.660441 17.451736 1.714783 -48.419514 15.801355 7.215400 -9.270177 -22.528875 -5.306398 -1.410392 -5.343184 26.389928 5.467420 4.829016 38.584638 18.074047 7.799776 -1.447932 -0.147925 -10.975678 -4.074695 3.615159 0.600974 5.522858 1.954645 -5.580259 
-0.192247 0.406397 -2.035351 -11.186589 -61.930549 -169.666729 1.591626 2.524740 -18.906147 -3.872848 23.695891 4.570740 -2.853977 20.106903 -5.913657 12.954037 0.139401 -3.872045 2.005827 -7.135466 22.349258 -0.076882 5.437812 4.375265 3.923156 -8.885890 -23.574332 -7.527210 3.015561 2.114858 4.599293 7.242256 7.729698 1.193289 1.166441 0.168442 0.973164 3.452307 5.708363 -8.556493 14.272841 -5.809382 -11.089465 10.590145 19.720891 -22.557417 7.486772 2.149709 -60.550573 3.893980 16.915496 0.364380 -51.360481 18.652151 6.145142 -8.367975 -22.273793 -5.982909 -1.364387 -4.935604 26.603302 5.060940 6.161470 41.696491 17.204378 8.736789 -0.266770 -1.778889 -10.055432 -3.325621 2.386282 -0.050230 6.478150 2.240550 -7.230635 
-0.105239 0.416753 -2.057393 -17.217367 -65.647797 -164.417093 -0.370850 -0.370928 -20.469396 -2.022747 22.653578 17.112255 0.626565 20.267684 -3.371822 10.724264 1.329009 -6.463357 0.388436 -7.339648 23.321741 -0.546111 5.301268 14.765200 4.933411 -11.070397 -20.258779 -8.589910 4.104193 -1.969989 2.660365 7.922208 5.718804 1.097527 1.065574 -0.136316 0.179418 2.870352 5.626879 -8.872463 14.273866 -5.785826 -11.129789 12.441138 19.973144 -22.717314 8.755000 2.822039 -58.950794 3.316842 16.392695 -0.481511 -53.763654 20.291002 5.663024 -7.501628 -22.298485 -7.176348 -1.806200 -4.525936 28.220845 2.995794 6.082828 43.535723 13.969402 10.639875 -2.039350 -0.010805 -10.492725 -2.565899 1.410061 -0.038134 7.005451 2.680047 -6.971899 
-0.023068 0.410323 -2.071826 -26.917324 -71.099392 -156.812345 -5.128590 -3.030627 -12.213687 -2.797531 16.148556 14.892402 4.825710 22.096011 -6.601197 8.735663 -0.244993 -6.215911 -0.533790 -5.713772 14.513570 1.297900 4.565428 40.905398 11.176371 -12.769896 -7.256290 -14.575623 7.461744 -9.254392 0.466564 6.376157 4.528004 2.375409 2.307300 0.158192 -0.064370 2.650348 5.877496 -8.677933 14.878756 -5.576082 -11.879216 13.176524 20.653910 -19.517633 9.647688 3.758104 -55.458069 4.547388 18.008322 -12.763705 -58.411374 31.007077 3.583799 -7.767342 -25.533713 -9.690889 -3.286153 -6.507305 28.318214 1.528838 5.341918 43.795257 11.485999 12.019684 -1.889337 0.366438 -13.560018 0.514115 0.208603 0.352267 8.879253 3.756071 -8.775516 
0.034648 0.406838 -2.074560 -41.571450 -77.574503 -145.390881 -7.270247 -2.258814 -2.469550 -4.257342 8.706121 11.209079 5.401285 22.247247 -9.320888 6.840443 -1.452432 -5.005374 -1.489375 -3.630356 5.179258 2.270140 0.888134 57.439676 8.756156 -15.279325 -10.916250 -10.684802 8.368886 -8.308827 1.139007 3.890145 6.930123 3.456319 2.977806 2.120177 -0.109680 2.694653 5.469545 -9.271474 16.658954 -6.061407 -13.729174 11.637667 17.067484 -17.118597 7.060493 4.894934 -46.093766 4.173708 16.499920 -17.702184 -53.518905 25.051086 -6.605222 -12.620566 -34.943174 -5.994063 -1.669314 -3.320956 28.493717 3.046804 6.080524 41.031218 10.449774 12.353875 -1.882784 1.851629 -15.573827 7.782546 0.075115 -2.637700 5.227646 2.947941 -6.492403 
0.078043 0.400494 -2.070811 -102.543375 -83.000512 -86.544414 -7.260110 -1.187369 5.089754 -4.102190 -0.757175 7.359156 2.371156 20.278793 -10.781084 7.468569 -2.857697 -3.958436 -1.780122 -1.146042 -3.089026 1.204508 -0.339430 52.059945 9.529124 -17.482193 -13.785652 -12.214764 9.177661 -5.734436 1.880529 2.188382 9.214787 4.807327 1.699167 2.388282 0.988139 1.204223 5.381405 -8.722328 16.662464 -6.017632 -13.632265 9.378330 15.887246 -14.630318 5.149914 5.594909 -41.956108 4.553538 14.959885 -18.048253 -49.890291 23.825199 -8.496883 -12.908836 -31.219538 -5.477633 -1.408667 -4.828440 27.586410 4.190218 5.029031 39.563552 9.718024 11.238506 -2.448508 2.904008 -16.085679 9.179876 -0.031178 -3.517472 4.187864 2.769499 -5.977062 
